<svg xmlns="http://www.w3.org/2000/svg" viewBox="0 0 64 64" role="img" aria-labelledby="title desc">
  <title id="title">Yippee Cafe favicon</title>
  <desc id="desc">A compact Yippee Cafe favicon with a cream cowboy hat and bold Y.</desc>
  <defs>
    <linearGradient id="bg" x1="0" y1="0" x2="1" y2="1">
      <stop offset="0" stop-color="#fff9ec"/>
      <stop offset="1" stop-color="#ffd86c"/>
    </linearGradient>
    <linearGradient id="felt" x1="0" y1="0" x2="1" y2="1">
      <stop offset="0" stop-color="#fffdf3"/>
      <stop offset="0.55" stop-color="#efe4cc"/>
      <stop offset="1" stop-color="#b99d68"/>
    </linearGradient>
  </defs>
  <rect width="64" height="64" rx="14" fill="url(#bg)"/>
  <path d="M8 23c7 4 17 5 30 4 8-.8 15-2.2 21-4.4 3-1.1 5.4.1 5 2.3-.7 3.5-6 6-15.3 7.3-15.2 2.1-27.2 1-36.3-3.2-4.7-2.1-7.7-7-4.4-6z" fill="#d9bb7c" stroke="#211506" stroke-width="2.4" stroke-linejoin="round"/>
  <path d="M19.5 27.3c-.8-6.4-.5-12.2 1-17.5 1.2-4.1 4.4-6.2 9.2-6.7 7.6-.7 14.5.8 18.1 4 2.7 2.3 3.6 5.2 3.1 9.1-.5 4.7-.1 8.4 1.2 11-7.8 2.4-24.4 2.4-32.6.1z" fill="url(#felt)" stroke="#211506" stroke-width="2.4" stroke-linejoin="round"/>
  <path d="M21 25.8c7.8 2.4 21.6 2.6 30 .4" fill="none" stroke="#15120f" stroke-width="4.2" stroke-linecap="round"/>
  <circle cx="25" cy="26" r="1.5" fill="#e9e6dc" stroke="#211506" stroke-width=".5"/>
  <circle cx="45" cy="26" r="1.5" fill="#e9e6dc" stroke="#211506" stroke-width=".5"/>
  <text x="32" y="56" text-anchor="middle" fill="#241507" font-family="Georgia, 'Times New Roman', serif" font-size="31" font-weight="900">Y</text>
</svg>
